<?xml version="1.0" encoding="UTF-8"?>
<svg width="173px" height="36px" viewBox="0 0 173 36" version="1.1" xmlns="http://www.w3.org/2000/svg" xmlns:xlink="http://www.w3.org/1999/xlink">
    <!-- Generator: Sketch 44.1 (41455) - http://www.bohemiancoding.com/sketch -->
    <title>Page 1</title>
    <desc>Created with Sketch.</desc>
    <defs>
        <polygon id="path-1" points="7.19938983 9.80267797 7.19938983 0.457322034 0.238149153 0.457322034 0.238149153 9.80267797 7.19938983 9.80267797"></polygon>
        <polygon id="path-3" points="0 35.9946305 172.555322 35.9946305 172.555322 0.000122033898 0 0.000122033898"></polygon>
    </defs>
    <g id="Symbols" stroke="none" stroke-width="1" fill="none" fill-rule="evenodd">
        <g id="👉navigation-/-main-upd" transform="translate(-78.000000, -30.000000)">
            <g id="Page-1" transform="translate(78.000000, 30.000000)">
                <path d="M103.478827,8.79675254 C102.918692,9.86882034 101.712997,10.5619729 100.407844,10.5619729 C98.2630983,10.5619729 96.645539,8.94929492 96.645539,6.81126102 C96.645539,4.67322712 98.2630983,3.06176949 100.407844,3.06176949 C101.697132,3.06176949 102.893064,3.7396678 103.45442,4.78915932 L103.554488,4.97709153 L104.517336,4.4236678 L104.414827,4.24610847 C103.626488,2.85980339 102.091302,1.9976339 100.407844,1.9976339 C97.6419458,1.9976339 95.5563864,4.06732881 95.5563864,6.81126102 C95.5563864,9.55580339 97.6419458,11.6248881 100.407844,11.6248881 C102.115098,11.6248881 103.660658,10.7468542 104.441064,9.3355322 L104.539302,9.15797288 L103.577675,8.60637966 L103.478827,8.79675254 Z" id="Fill-1" fill="#221F20"></path>
                <polygon id="Fill-3" fill="#221F20" points="108.151078 11.4835729 109.251824 11.4835729 109.251824 3.18831864 112.059824 3.18831864 112.059824 2.13882712 105.343688 2.13882712 105.343688 3.18831864 108.151078 3.18831864"></polygon>
                <path d="M114.775932,3.18844068 L116.931661,3.18844068 C118.050102,3.18844068 118.831729,3.98044068 118.831729,5.11291525 C118.831729,6.22220339 118.033017,7.02579661 116.931661,7.02579661 L114.775932,7.02579661 L114.775932,3.18844068 Z M114.775932,8.07650847 L116.931661,8.07650847 C118.635254,8.07650847 119.919661,6.80247458 119.919661,5.11291525 C119.919661,3.41725424 118.635254,2.13833898 116.931661,2.13833898 L113.68922,2.13833898 L113.68922,11.4836949 L114.775932,11.4836949 L114.775932,8.07650847 Z" id="Fill-5" fill="#221F20"></path>
                <path d="M126.055098,10.5617288 C123.966488,10.5617288 122.330624,8.91427119 122.330624,6.81162712 C122.330624,4.70776271 123.966488,3.06152542 126.055098,3.06152542 C128.143708,3.06152542 129.779573,4.70776271 129.779573,6.81162712 C129.779573,8.91427119 128.143708,10.5617288 126.055098,10.5617288 M130.869336,6.81162712 C130.869336,4.11223729 128.754488,1.99738983 126.055098,1.99738983 C123.354488,1.99738983 121.240861,4.11223729 121.240861,6.81162712 C121.240861,9.50979661 123.354488,11.6246441 126.055098,11.6246441 C128.754488,11.6246441 130.869336,9.50979661 130.869336,6.81162712" id="Fill-7" fill="#221F20"></path>
                <polygon id="Fill-9" fill="#221F20" points="139.760664 11.4835729 139.760664 2.13882712 138.846631 2.13882712 133.890834 9.36262373 133.890834 2.13882712 132.802292 2.13882712 132.802292 11.4835729 133.704732 11.4835729 138.672122 4.25855593 138.672122 11.4835729"></polygon>
                <polygon id="Fill-11" fill="#221F20" points="149.607397 11.4835729 150.697769 11.4835729 150.697769 2.13882712 149.518922 2.13882712 146.444888 7.22947119 143.370854 2.13882712 142.205431 2.13882712 142.205431 11.4835729 143.293973 11.4835729 143.293973 4.08160678 146.277092 9.0331322 146.624888 9.0331322 149.607397 4.08160678"></polygon>
                <path d="M101.655519,17.3668881 L101.655519,24.6120407 L97.2836542,24.6120407 C97.7034508,23.8603119 97.909078,22.877939 97.909078,21.6277017 L97.909078,17.3668881 L101.655519,17.3668881 Z M102.745892,16.3161763 L96.8199254,16.3161763 L96.8199254,21.6136678 C96.8199254,22.9694644 96.555722,23.9518373 96.0126712,24.6120407 L95.1858915,24.6120407 L95.1858915,27.3718373 L96.2872475,27.3718373 L96.2872475,25.6621424 L102.587858,25.6621424 L102.587858,27.3718373 L103.689214,27.3718373 L103.689214,24.6120407 L102.745892,24.6120407 L102.745892,16.3161763 Z" id="Fill-13" fill="#221F20"></path>
                <path d="M106.554142,21.6663254 C106.554142,24.3553424 105.723092,24.6665288 105.098278,24.6665288 C105.020786,24.6665288 104.940854,24.6616475 104.857871,24.6512746 L104.627837,24.6244271 L104.627837,25.6446305 L104.815769,25.6611051 C104.92499,25.6702576 105.03299,25.675139 105.136108,25.675139 C106.847024,25.675139 107.643905,24.4053763 107.643905,21.679139 L107.643905,17.3670712 L111.520312,17.3670712 L111.520312,25.6617153 L112.621058,25.6617153 L112.621058,16.3163593 L106.554142,16.3163593 L106.554142,21.6663254 Z" id="Fill-15" fill="#221F20"></path>
                <path d="M117.504976,17.3668881 L120.157993,17.3668881 L120.157993,20.9485831 L117.504976,20.9485831 C116.542129,20.9485831 115.758061,20.1480407 115.758061,19.1632271 C115.758061,18.1723119 116.542129,17.3668881 117.504976,17.3668881 M114.670129,19.1632271 C114.670129,20.4726508 115.571349,21.6014644 116.811824,21.9114305 L114.229586,25.6621424 L115.493858,25.6621424 L118.02118,21.9986847 L120.157993,21.9986847 L120.157993,25.6621424 L121.247146,25.6621424 L121.247146,16.3161763 L117.504976,16.3161763 C115.941722,16.3161763 114.670129,17.593261 114.670129,19.1632271" id="Fill-17" fill="#221F20"></path>
                <polygon id="Fill-19" fill="#221F20" points="137.582786 16.3163593 136.223939 16.3163593 132.717295 20.1640881 132.717295 16.3163593 131.616549 16.3163593 131.616549 20.1640881 128.109295 16.3163593 126.748617 16.3163593 130.870312 20.862122 126.630854 25.6617153 127.98421 25.6617153 131.616549 21.5693085 131.616549 25.6617153 132.717295 25.6617153 132.717295 21.5693085 136.349024 25.6617153 137.70421 25.6617153 133.464142 20.862122"></polygon>
                <polygon id="Fill-21" fill="#221F20" points="140.129512 23.5400339 140.129512 16.3162373 139.040969 16.3162373 139.040969 25.6622034 139.94402 25.6622034 144.9108 18.4365763 144.9108 25.6622034 145.999953 25.6622034 145.999953 16.3162373 145.085308 16.3162373"></polygon>
                <path d="M152.947281,20.8100746 C153.621519,20.3536678 154.014468,19.6312271 154.014468,18.8074983 C154.014468,17.2826847 152.780095,16.1764475 151.078332,16.1764475 C149.216705,16.1764475 148.392366,17.2167864 148.028095,18.0893288 L147.958536,18.2571254 L148.885383,18.7843119 L148.971417,18.5622102 C149.317993,17.6756339 150.02579,17.2253288 151.078332,17.2253288 C152.183349,17.2253288 152.925925,17.8611254 152.925925,18.8074983 C152.925925,19.7441085 152.177247,20.3750237 151.064298,20.3750237 L150.143553,20.3750237 L150.143553,21.4251254 L151.356569,21.4251254 C152.503078,21.4251254 153.244434,22.0755661 153.244434,23.0817356 C153.244434,24.112922 152.433519,24.7523797 151.128366,24.7523797 C149.576705,24.7523797 149.025722,23.9390237 148.83718,23.2574644 L148.768231,23.0066847 L147.800502,23.533261 L147.856027,23.6980068 C148.125722,24.4832949 148.90918,25.8018712 151.128366,25.8018712 C153.023553,25.8018712 154.3464,24.6828203 154.3464,23.0817356 C154.3464,22.0804475 153.831417,21.2561085 152.947281,20.8100746" id="Fill-23" fill="#221F20"></path>
                <polygon id="Fill-25" fill="#221F20" points="162.061688 20.3364 157.27979 20.3364 157.27979 16.3166034 156.191247 16.3166034 156.191247 25.6619593 157.27979 25.6619593 157.27979 21.3858915 162.061688 21.3858915 162.061688 25.6619593 163.150231 25.6619593 163.150231 16.3166034 162.061688 16.3166034"></polygon>
                <g id="Group-29" transform="translate(165.355932, 15.859037)">
                    <mask id="mask-2" fill="white">
                        <use xlink:href="#path-1"></use>
                    </mask>
                    <g id="Clip-28"></g>
                    <polygon id="Fill-27" fill="#221F20" mask="url(#mask-2)" points="6.28370847 0.457322034 1.32730169 7.68111864 1.32730169 0.457322034 0.238149153 0.457322034 0.238149153 9.80267797 1.14242034 9.80267797 6.1092 2.57766102 6.1092 9.80267797 7.19957288 9.80267797 7.19957288 0.457322034"></polygon>
                </g>
                <path d="M40.4076203,15.6736678 C40.9598237,13.1298712 41.1099254,10.6538034 41.1288407,8.13380339 L49.5650441,8.13380339 L49.5650441,21.3055322 L38.710739,21.3055322 C39.4948068,19.2828203 39.9841627,17.6323119 40.4076203,15.6736678 L40.4076203,15.6736678 Z M55.4647729,21.3055322 L55.4647729,2.22797288 L35.2516881,2.22797288 L35.2516881,7.87997288 C35.2516881,9.08993898 35.2516881,12.4806508 34.6726373,15.1757695 C34.4102644,16.3906169 33.3510102,19.6056 32.1977898,21.3055322 L29.9285695,21.3055322 L26.8508746,27.1808542 L58.4009085,27.1808542 L58.4009085,21.3055322 L55.4647729,21.3055322 Z" id="Fill-30" fill="#221F20"></path>
                <mask id="mask-4" fill="white">
                    <use xlink:href="#path-3"></use>
                </mask>
                <g id="Clip-33"></g>
                <polygon id="Fill-32" fill="#221F20" mask="url(#mask-4)" points="17.6229153 21.3060203 23.5012881 21.3060203 23.5012881 2.22785085 17.6229153 2.22785085"></polygon>
                <polygon id="Fill-34" fill="#221F20" mask="url(#mask-4)" points="17.6135797 21.3231051 5.87513898 21.3231051 5.87513898 2.22785085 -0.000183050847 2.22785085 -0.000183050847 27.1978169 14.5242915 27.1978169"></polygon>
                <path d="M73.0600475,21.8346712 C69.1262847,21.8346712 65.9393695,18.6471458 65.9393695,14.7139932 C65.9393695,10.7802305 69.1262847,7.59209492 73.0600475,7.59209492 C75.1358441,7.59209492 76.996861,8.48538305 78.2983525,9.90280678 L81.0343525,4.69073898 C78.8462847,2.94260339 76.0791661,1.89189153 73.0600475,1.89189153 C65.9790305,1.89189153 60.2379458,7.63297627 60.2379458,14.7139932 C60.2379458,21.7950102 65.9790305,27.5348746 73.0600475,27.5348746 C77.3159797,27.5348746 81.0764542,25.4529763 83.4079119,22.2611797 L78.8084542,18.9052475 C77.5124542,20.6790102 75.4244542,21.8346712 73.0600475,21.8346712" id="Fill-35" fill="#221F20" mask="url(#mask-4)"></path>
                <polygon id="Fill-36" fill="#ED2D23" mask="url(#mask-4)" points="20.7585763 35.9946305 9.89816949 35.9946305 17.6229153 21.3060203 28.483322 21.3060203"></polygon>
                <polygon id="Fill-37" fill="#00ADEF" mask="url(#mask-4)" points="86.6503525 14.6905017 75.7850644 14.6905017 83.4969966 6.10169492e-05 94.3561831 0.00250169492"></polygon>
            </g>
        </g>
    </g>
</svg>