<svg xmlns="http://www.w3.org/2000/svg" height="346.217" width="453.022"><defs><clipPath id="a"><path d="M0 297.638h420.945V0H0v297.638z"/></clipPath></defs><g clip-path="url(#a)" transform="matrix(1.25 0 0 -1.25 -37.394 356.265)"><path d="M391.101 162.574c-26.175 125.371-156.917 136.349-265.583 111.985 65.585-56.736 126.342-84.505 176.447-48.533-42.112-9.489-83.773-16.001-116.92 34.096 69.216 33.966 205.082-17.928 200.439-113.834l-6.555 2.974 5.902-8.365c-.82-4.006-2.346-7.292-4.435-9.856-.185.007-.374.01-.572.01-3.186 2.307-2.679 8.17-1.25 14.925-3.591-6.89-5.578-13.526-4.252-19.68-19.642-9.183-28.809 10.663-31.789 21.017-1.1-5.306 2.629-17.011 2.629-17.011-12.641 6.885-26.6 19.86-39.295 39.377 5.724-20.459 22.356-36.107 39.541-43.517 14.185-5.15 20.268-3.859 23.267-3.797 16.156.35 27.525 15.794 22.426 40.209m-34.214 18.292c-4.603-10.323-2.465-18.887 4.303-26.23-4.451 8.257-5.524 15.502-3.233 21.752 3.911.347 6.783-.527 8.786-2.47a6.213 6.213 0 0 1-2.95-.405c1.218-.489 1.964-1.485 1.77-2.432-.246-1.125-1.728-1.766-3.324-1.431a3.819 3.819 0 0 0-1.643.769 6.207 6.207 0 0 1-.336-1.065c-.669-3.153 1.428-6.273 4.692-6.959 2.061-.433 4.099.203 5.472 1.539.278-3.41.099-7.451-.423-12.069 8.727 18.668 6.102 29.533-13.114 29.001" fill="#3482bd" fill-rule="evenodd"/><path d="M282.566 196.449c-38.676 22.888-89.466 24.459-131.227 4.398-18.19 53.548-88.414 11.99-52.679-24.561-13.726-8.973-27.203-24.145-34.687-61.342 19.632 50.696 43.672 59.639 47.658 57.898-19.844 36.904 23.672 49.601 36.97 16.735 44.208 25.016 96.311 27.274 134.308 4.166l-.343 2.706z" fill="#3482bd" fill-rule="evenodd"/><path d="M36.916 90.016c8.077-.938 8.346-1.077 8.346-9.287V60.947c0-9.161-.269-19.395-1.078-30.293-.406-5.123-1.212-8.081-2.154-9.29-.942-1.214-5.114-1.349-8.479-1.349-2.423 0-3.636-1.345-3.636-4.043 0-4.437 3.5-7.934 5.521-7.934 1.075 0 2.29.401 3.093.935 7.271 4.443 18.446 13.875 23.829 26.254 2.96 7 4.042 12.793 4.042 24.36v39.851c-10.366-1.881-20.868-3.769-29.484-4.84v-4.582z" fill="#3482bd"/><path d="M111.228 42.363c-6.869 0-10.369 15.077-10.369 31.229 0 12.658 3.5 19.385 7.674 19.385 5.659 0 9.966-8.616 9.966-32.711 0-14.404-3.775-17.903-7.271-17.903m-.811 57.075c-16.557 0-33.114-11.44-33.114-33.11 0-15.344 11.044-30.424 32.171-30.424 16.562 0 32.583 10.901 32.583 32.44 0 17.097-11.715 31.094-31.64 31.094m73.37-57.075c-6.873 0-10.37 15.077-10.37 31.229 0 12.658 3.497 19.385 7.674 19.385 5.657 0 9.965-8.616 9.965-32.711 0-14.404-3.773-17.903-7.269-17.903m-.811 57.075c-16.561 0-33.119-11.44-33.119-33.11 0-15.344 11.044-30.424 32.18-30.424 16.557 0 32.574 10.901 32.574 32.44 0 17.097-11.712 31.094-31.635 31.094" fill="#61ba52"/><path d="M254.056 42.758c-2.554 0-4.713 1.356-5.925 4.724-.406 1.206-.811 3.502-.811 5.649v35.545c1.085.533 2.426.808 3.773.808 5.923 0 14.138-4.043 14.138-24.504 0-14.276-4.714-22.222-11.175-22.222m5.919 56.68c-3.361 0-5.652-1.349-8.075-2.555l-4.58-2.154v37.56c-11.436-1.884-22.071-3.767-29.478-4.716v-4.842c8.082-.543 8.351-.672 8.351-8.618V41.146c8.479-3.636 16.152-5.242 24.358-5.242 21.816 0 37.567 14.534 37.567 34.595 0 15.88-11.579 28.939-28.143 28.939M321.9 51.913v80.376c-11.441-1.884-22.075-3.767-29.477-4.716v-4.842c8.074-.543 8.345-.672 8.345-8.618v-62.2c0-7.67-.675-8.33-7.808-9.155V37.51h36.752v5.248c-7.135.825-7.812 1.485-7.812 9.155m39.984 40.526c3.362 0 7.54-6.46 7.54-12.388 0-2.276-.538-2.689-2.827-2.824l-11.981-.404c.135 11.175 4.305 15.616 7.268 15.616m9.424-42.126c-7.535 0-16.692 7.259-16.962 19.375 12.925.544 29.214 1.887 31.23 2.289 2.827.548 3.367.812 3.367 5.385 0 12.654-11.58 22.076-22.346 22.076-18.175 0-32.712-15.349-32.712-33.792 0-16.826 11.712-29.742 30.694-29.742 4.575 0 15.615 2.955 24.1 15.206l-2.563 4.313c-5.516-3.365-9.688-5.11-14.808-5.11" fill="#3482bd"/></g></svg>